<?xml version="1.0" standalone="no"?>
<!DOCTYPE svg PUBLIC "-//W3C//DTD SVG 20010904//EN"
 "http://www.w3.org/TR/2001/REC-SVG-20010904/DTD/svg10.dtd">
<svg version="1.0" xmlns="http://www.w3.org/2000/svg"
 width="204.000000pt" height="206.000000pt" viewBox="0 0 204.000000 206.000000"
 preserveAspectRatio="xMidYMid meet">

<g transform="translate(0.000000,206.000000) scale(0.100000,-0.100000)"
fill="#000000" stroke="none">
<path d="M260 1693 c-304 -344 -341 -850 -89 -1232 351 -533 1088 -615 1552
-172 134 127 233 304 283 501 15 59 19 109 18 240 -1 149 -3 174 -28 255 -48
162 -125 303 -218 401 l-51 54 -64 0 -65 0 62 -67 c164 -179 242 -386 243
-643 0 -146 -23 -258 -77 -375 -144 -311 -425 -504 -761 -522 -238 -12 -453
60 -631 213 -116 99 -113 139 23 279 54 55 113 116 131 136 l32 35 -19 45
c-53 119 -49 267 9 385 37 76 135 171 213 208 264 125 578 -33 638 -322 43
-209 -85 -436 -291 -516 -54 -21 -160 -31 -225 -22 -83 13 -119 74 -76 127 18
23 26 24 128 24 93 0 114 3 150 23 149 79 211 259 140 404 -34 69 -101 131
-164 152 -26 9 -77 16 -113 16 -55 0 -78 -6 -128 -31 -154 -77 -207 -238 -134
-406 52 -117 50 -121 -107 -280 -67 -67 -121 -126 -121 -131 0 -16 97 -82 175
-118 296 -141 640 -79 855 152 139 149 204 314 202 514 -3 328 -202 604 -509
704 -44 15 -85 17 -250 14 l-198 -3 -80 -38 c-211 -100 -361 -277 -415 -491
-34 -136 -23 -345 24 -458 22 -53 20 -93 -6 -118 -56 -52 -107 -12 -148 115
-73 230 -59 481 39 691 49 103 89 162 165 242 l59 62 -66 0 -65 0 -42 -47z"/>
</g>
</svg>
